<?xml version="1.0" encoding="UTF-8"?>
<svg id="_レイヤー_2" data-name="レイヤー 2" xmlns="http://www.w3.org/2000/svg" viewBox="0 0 582.56 74.25">
  <defs>
    <style>
      .cls-1 {
        fill: #003c00;
        stroke-width: 0px;
      }
    </style>
  </defs>
  <g id="_レイヤー_1-2" data-name="レイヤー 1">
    <g>
      <path class="cls-1" d="m55.16,12.89c-2.16-1.56-3.48-4.72-6.68-3.72-.76-.44-1.44.24-2.04.64v.2c-.88.04-2.16-.68-2.16,1.24-2.12-.28-2.56,2.8-3.72,2.64,0,.04-.04.08-.08.12-.4.64-1,1.12-1.48,1.72-2.2,2.84-4,6-5.4,9.28-3.6,1.6-.88,5.8-4,7.32l.16.68c1.12-.4.92,1.32.68,1.88-2.32,2.32.68,4.96-1.72,6.92-.48-.28-.88-.2-1.4-.04-.4.16-.56.16-.88-.2-.48-.6-.32-2.04-.44-2.8,2.64-3.36.28-7.16,2.08-10.68,0-.56-.16-.6-.36-1l.32-.16c-.24-1.8-.04-3.16.24-4.92l.04-.24-.16-.16c-.72-.72.44-1.64.24-2.4-.16-.64-.32-1.28-.48-1.96-.32-1.52-.48-2.68-1.4-4-2,.48-4.08,1.8-4.76,3.8l-.04.12s.04.08.04.12c.16.76-1.2,1.2-1.12,2.6.08,1.08-.92,2.84-1.56,3.72-1.32,2.32-1.12,5.12-2.8,7.32,1.2,2.88-1.56,5.68-1.56,8.64,0,.24.04.44.04.68-.48.84-1.96.16-2.56-.28-1.36-1,.24-2.68-.44-3.8.76-2.8,2.12-5.36,2.24-8.32,1.24-1.6.76-3.76,1.76-5.48.04-.04.04-.08.08-.12.28-1.36.2-2.36.04-3.72-.04-.48-.04-1.88-.12-2.2,0-.16-.08-.32-.08-.48,0-1,.52-1.96.52-2.96,0-.88-.52-1.76-1.32-2.2-.08-.04-.16-.04-.24-.04-1.44,0-1.68,1.2-1.88,2.36,0,.16-.08.72-.16.84-.28.52-.8,1.12-1.16,1.64-.96,1.4-1.68,2.76-2.16,4.44-1.28-.12-1.4.84-2.12,1.56l-.28.28.2.2c-.92.6-1.16,1.6-1.32,2.64-.24,1.56-.32,2-2.04,1.84h-.12l-.08.04c-1.68.84,0,2.44-1.32,2.6-.68.08-1.52.08-2.16-.28,0-.2,0-.36-.04-.56-.12-2.08.96-4.12,2.08-5.88v-.08c.76-2.8,2.36-6.16,4.64-7.96-.28-.88-.16-.76.68-1.2.4-.92,2.08-2.64,2.8-3.4,1.24-1.28,2.2-2.32,3-3.92.92.24,2.04.52,2.92.24.08.6.56,1.04,1.12,1.24.36,1.64,2.44,3.92,1.96,5.52-.28,1,0,1.08-.76,1.8.48.32,1.08.76,1.64.56,1-.4.64-1.76,1.28-2.36,1.76-1.6,3-3.48,5.52-3.84,1.88.68,1.44,3.08,2.84,4.28-.12.88-.2,1.8.84,2.04.2,2.28-.16,3.36,1,5.52l.36-.56c.64-1,1.76-1.6,2.04-2.84.68-.12.8-.6,1.24-.96-.12-1.44,2.2-4.48,2.68-6.12,2.96-.88,4.4-5.08,7.92-4.36,2.8,0,4.12.72,6.52,1.96.12.04,1.16.56,1.16.6.72,1.08,1.8,2.4,1.8,3.72,0,.2-.04.44-.12.64Z"/>
      <path class="cls-1" d="m58.04,36.88c-2.44,2.6-2.48,1.88-5.36,3.92l-.28.04c-.32,1.56-1.76,0-2.36,1.52-.92.24-1.4.12-2.36.12-.32,0-.88-.08-1.2,0-.44.12-1,1.08-1.44.28-1.28.36-2.08-.88-2.84-1.72-.24-.32-.56-.56-.84-.84-1.12-1.16-1-3.68-.6-5.12.92-.96.56-2.44,1.44-3.44-.04-1.36,1.16-2.24,2-3.12.88,0,1.72-.2,2,.84.76,2.76-2.96,3.12-1.72,5.72-1.12,0-.44,1.4-1.4,1.72.56.68-.16,3.56,1.68,2.84.68.56,1.76.2,2.56.28,1.44-.96,1.92.32,3.36-.2.48-1.76,2.24-.12,2.52-1.84.8-1.04,2.52.08,2.96-1.92,1.8-1.4,1.04-1,3-2.2.12,2.28-1.16,1.4-1.12,3.12Zm-8.12-16.92c-.76-1.28-2.48-1.96-2.28-3.68l1.96-2.28c1.24.4,1.32,1.36,2,2.28-1.84.68.16,3.24-1.68,3.68Z"/>
      <path class="cls-1" d="m79.32,13.45c-1.64-.44-3.64.8-5.48.68l-.64-.68c-.36.6-1.12.76-1.72.32-2.16,1.48-4.56-1.04-5.88,2.4-.44,1.2-.84,2.44-1.28,3.64-1.12,3.08-2.28,6.16-3.72,9.12-.12,2.36.2,4.76.44,7.12-.4,1.24.44,2.8,1.2,3.76l.72-.68.96,1.36c1.04-1.4,2.8-3.12,4.56-3.4.8-.72,1.16-1.76,2.44-1.36,3.36-1.92,4.88-6.16,8.76-7.16-1.28,3-3.24,6-5.64,8.2-.32.36-.76.72-1.16,1-.4.28-.88.52-1.32.8-1.4.92-2.76,2-3.92,3.28-.28-.64-1.16-.28-1.72-.36-1,.72-2.8,1.32-4.08,1.04-.32-.08-1.12-.48-1.44-.68-2.04-1.32-3-3.44-3.12-5.8l-.32-.32c1.4-1.2.44-2.52.36-4,0-.44.08-.72.16-1.12.4-1.64.72-3.24,1.16-4.84,1.08-3.96,2.48-7.84,4-11.64-1.64-.64-3.4-.08-5.08-.68-.36-.12-.2-.16-.6-.16-.52,0-2.04.44-2.2-.28v-.4c.08-1.72,1.4-.8,2.44-1.44,2.88.56,5.2.64,7.52-1.36,1.64-3.28,1.16-7.76,4.76-9.8.8-.08,1.4.32,2.04.68-.56,1.44-.48,3.2-1.52,4.44,1.44.48,0,1.56-.12,2.36-.56.04-.92.96-1.36,1.32-.4.88.44,1.44.92,2.04.96.36,1.8-.88,2.4,0,1.04-1.16,2.16.88,3.08-.68,1.32-.56,2.12,1,3.04.32,1.6.24,3.88-.36,5.48-.68,1.56.96.24,1.28.68,2.6-1.44,1.6-3.68-.64-4.8,1.04Z"/>
      <path class="cls-1" d="m91.08,43.2c-2.04-.52-4.04,1.04-5.4-1.04h-.6c.08-.68,0-1.6-.84-1.72,1.08-1.12.24-2.96,1.44-3.96-1.28-1.68,1.08-3.36,1.12-5.12-.44-.32-.76-1.16-1.44-.88-2.8,2.68-5.68,4.76-7.64,8.24-1.76.36-1.56,3.04-3.16,3.44-.28.84-.56,1.72-.84,2.56-.6-.32-2.08-.4-2.28-1.16-.04-.08,0-.56,0-.64.24-2.96,3-4.88,3.12-7.88,1.52-.04.52-2.2,2-2-.96-1.28.52-3.12,1.16-4.24-.04-.72.16-1.52.6-2.08.48-.52.84-1.08,1.16-1.64.2-.28.32-.6.48-.84.92-1.32.28-3.24,2-3.96,0-1.12.88-2,.88-3.12.36-.56,1.36-.92,1.12-1.72.04-.64-.2-1.48.28-2-.16-1.32,1.24-1.56,2-2.28-.48-.8.76-1.84,1.12-2.52.64-1.2.84-2.56,2.28-3.16-.44-2.12,1.72-2,2.56-3.4,1.16-.28,2.8-.92,3.8,0,.52.44,0,.08.44.56.2.2.4.4.6.6.16.76-.44,1.88.56,2.24-.88,3,.72,7.16-1.44,9.68l-.28,2c-1.36.12-.72,1.76-1.4,2.56-.8,1.04-1.56,2.88-3.12,2.84-.24.64-1.36,1.76-2,1.96-.4.16-.72.16-1.12.4-.92.56-1.96,1.8-3.16,1.32-1.36,1.64-3.56.2-4.32,2.16-.08.12-.2.56-.2.68,0,.6-.2,1.56.28,2,1.88-.88,3.48-2.32,5.4-3.12l.28.28c.16-1.16,1.16-.88,2-.84h.28c.12,0,.16-.04.28-.04,1,0,1.12.96,1.4,1.72-1.16,1.28-1.12,3.56-2.28,5.12.92.52-.68,1.32.6,1.68-1.04.72-.48,2.12-1.44,2.84.2.48.4.92.28,1.44,1.48,1.84,2.92-.12,4.56.48,2.92-1.96,1.56-.16,4.16-2.68,1.32-.36,2.16-1.44,3.4-1.96-2.24,4.68-3.48,4.8-8.68,7.2Zm2.84-39.11c.12,1.28-1.6,1.12-1.72,2.28-1.32.6-.48,2.16-2,2.84l.28.28c-1.72,1.56-2.6,3.84-3.4,5.96-1.4,1.52-.88,4.16-2.84,5.12,1.08,1.36-1,2.16-1.12,3.4,1.96.4,3.88-1.28,5.4-2.28l.28.28c2.32-1.28,3.72-3.24,5.12-5.4-.2-.12-.36-.32-.32-.56.08-.28.32-.68.4-.96.28-.72.44-1.44.6-2.16.64-2.8.92-5.68,1-8.52l-1.68-.28Z"/>
      <path class="cls-1" d="m136.12,40.36s-1.6,1.32-2.04,1.32c-.12,0-.2-.04-.32-.04-.32,0-.64.12-.84-.24-.32.28-.24.96-.92.76l-.2-.24-.6.52c-2.92-1.48-5.36-1.56-5.96-5.32-.28-.32-.56-.64-.96-.52-.52.88-1.32,1.44-2.04,2.16-.24.28-.4.6-.64.88-.8.96-2.44.28-2.92,2.04-.36-.2-.64-.2-.92-.16-1,.16-2.08.76-2.88-.28-1.4.6-2.48-1.76-3.44-2.44-.56-1.68,1.88-2.24.64-3.76,1-1.52,1.56-3.6,2.96-4.8-.6-.68.24-1.4.4-2.04l1.12-.52-.28-.96c1.2.2,1-.76,1.32-1.44.12-.2.28-.4.56-.48,2.24-1.68,4.12-3.88,6.76-5,1.92.32,1.96,1.72,2.32,3.16.24.84.52,1.48,1.4,1.88-.72,1.28-.36,2.48-.2,3.8.16,1.28.16,2.52-1.16,3.44-.16.72.32,1.8-.56,2.24.96,1.08-.36,2.4,1.44,2.84.28,1.32.44,1.16,1.44,1.88.44.08,1.04-.16,1.36.24.24-.24.64-.24.96-.2l.52.84c1.12-.88,3.2-1.2,3.2-1.2l3.64-2.2c-1.48,2.56-1.36,2.68-3.16,3.84Zm-11.84-17.2c-1,.88-2.96,1.6-3.16,3.04-2.36.4-1.4,3.48-3.32,4.48-.08.08-.28.16-.4.16-.04,0-.04.04-.24.16-1.16.8-1.52,2.68-2,3.92-1.48.24-1.28.8-.88,1.52.36.64,1.08,1.64.56,2.36.72.6,1.4,0,2-.4.2-.16.44-.32.72-.44,2.4.44,3.76-2,5.36-3.24l-.28-.32c1.84-.56,1.36-1.84,1.24-3.24-.04-.4-.04-.84.12-1.24-.8-2.4,1.56-4.2,1.56-6.48l-1.28-.28Z"/>
      <path class="cls-1" d="m163.12,29.93l-1.24,1.36-.76,2.2c-.56.4-1.28.8-1.8,1.24s-.96,1.12-1.48,1.52c-.52.4-1.32.64-1.88,1-1,.6-1.92,1.32-2.88,1.96-.24.12-.36.24-.6.36-.28.12-5.68,1.56-6.04,1.6-.92.12-1.96.08-2.92.12l-.6.32c-.56-.36-1.32-.72-1.8-1.16-.52-.44-1.04-1.12-1.48-1.64-.24-.68-.56-1.44-.72-2.12l-.16-1.48c-.12-.96-.2-1.92-.28-2.88.84-2.44,1.48-4.96,2.48-7.36.24-.56.48-1.2.76-1.76.28-.6.68-1.12.96-1.72.28-.6.36-1.28.64-1.84.32-.64,1.6-2.64,2.08-3.32.36-.52.84-1,1.12-1.52.52-.88.96-2.48,1.52-3.48.64-1.16,1.6-2.12,2.32-3.2.4-.56.76-1.2,1.12-1.8l1.72-1.28.76.8,1.88-.32,1.2,1.76c-.2,1.56-.6,4.12-.36,5.6-.24.92-.8,2-1.4,2.76l-.16,2.12-1.56,1.4-.2,2-1.32,1.56c-.16.68-.32,1.52-.56,2.16-.24.64-.68,1.32-1,1.96-1.04.92-2.24,2.04-3.12,3.12-.44.56-.8,1.24-1.24,1.84-1.32,1.72-3,3.16-4.48,4.76l.84,1.56c1.12.32,2.28.64,3.4.92,1.04-.2,2.96-.6,3.92-1,1-.4,2.56-1.4,3.52-2,1.68-1.04,3.44-2.12,5-3.32,2.08-1.6,4.8-5.24,5.48-4.88.04.76-.44,1.56-.68,2.08Zm-9.96-20.56c-1.08,1.8-2.4,3.44-3.44,5.28-.36.6-.6,1.28-.96,1.88-.36.6-.84,1.16-1.16,1.8-.64,1.2-1.04,2.6-1.64,3.84-.64,1.24-1.56,2.28-2.2,3.52l-.64,1.24c-.12.24-.24.36-.32.6-.2.56-.12,1.28-.28,1.88-.16.6-.52,1.2-.76,1.76-.24.56-.4,1.16-.6,1.76.44-.4.96-.76,1.4-1.16.48-.44.88-1.04,1.36-1.44.48-.4,1.08-.72,1.6-1.08.36-.56.76-1.16,1.08-1.76.32-.6.48-1.36.84-1.96.32-.56.92-1.08,1.28-1.64.36-.56.64-1.24,1-1.8.36-.56.8-1.12,1.2-1.64l.2-2.44,1.4-1.64.2-1.52,1-1.36.12-2.16-.68-1.96Z"/>
      <path class="cls-1" d="m184.04,29.93l-1.24,1.36-.76,2.2c-.56.4-1.28.8-1.8,1.24s-.96,1.12-1.48,1.52c-.52.4-1.32.64-1.88,1-1,.6-1.92,1.32-2.88,1.96-.24.12-.36.24-.6.36-.28.12-5.68,1.56-6.04,1.6-.92.12-1.96.08-2.92.12l-.6.32c-.56-.36-1.32-.72-1.8-1.16-.52-.44-1.04-1.12-1.48-1.64-.24-.68-.56-1.44-.72-2.12l-.16-1.48c-.12-.96-.2-1.92-.28-2.88.84-2.44,1.48-4.96,2.48-7.36.24-.56.48-1.2.76-1.76.28-.6.68-1.12.96-1.72.28-.6.36-1.28.64-1.84.32-.64,1.6-2.64,2.08-3.32.36-.52.84-1,1.12-1.52.52-.88.96-2.48,1.52-3.48.64-1.16,1.6-2.12,2.32-3.2.4-.56.76-1.2,1.12-1.8l1.72-1.28.76.8,1.88-.32,1.2,1.76c-.2,1.56-.6,4.12-.36,5.6-.24.92-.8,2-1.4,2.76l-.16,2.12-1.56,1.4-.2,2-1.32,1.56c-.16.68-.32,1.52-.56,2.16-.24.64-.68,1.32-1,1.96-1.04.92-2.24,2.04-3.12,3.12-.44.56-.8,1.24-1.24,1.84-1.32,1.72-3,3.16-4.48,4.76l.84,1.56c1.12.32,2.28.64,3.4.92,1.04-.2,2.96-.6,3.92-1,1-.4,2.56-1.4,3.52-2,1.68-1.04,3.44-2.12,5-3.32,2.08-1.6,4.8-5.24,5.48-4.88.04.76-.44,1.56-.68,2.08Zm-9.96-20.56c-1.08,1.8-2.4,3.44-3.44,5.28-.36.6-.6,1.28-.96,1.88-.36.6-.84,1.16-1.16,1.8-.64,1.2-1.04,2.6-1.64,3.84-.64,1.24-1.56,2.28-2.2,3.52l-.64,1.24c-.12.24-.24.36-.32.6-.2.56-.12,1.28-.28,1.88-.16.6-.52,1.2-.76,1.76-.24.56-.4,1.16-.6,1.76.44-.4.96-.76,1.4-1.16.48-.44.88-1.04,1.36-1.44.48-.4,1.08-.72,1.6-1.08.36-.56.76-1.16,1.08-1.76.32-.6.48-1.36.84-1.96.32-.56.92-1.08,1.28-1.64.36-.56.64-1.24,1-1.8.36-.56.8-1.12,1.2-1.64l.2-2.44,1.4-1.64.2-1.52,1-1.36.12-2.16-.68-1.96Z"/>
      <path class="cls-1" d="m235.28,35.52c-.56,1.04-.56,1.64-1.96,1.68,0,.28-2.56,2.28-2.52,2.56l-.36-.2c-.2-.12-2.28.24-3,1.56l-.16-.04c-.76-.2-1.6,0-2.4.04-1.64.04-2.2-.4-3.08-2.08-.2-.36-.36-.8-.44-1.2v-.16c1.44-.88-.28-3,.84-4-.64-1.72,2.32-2.88.04-4.2-2.4.88-4.2,3-6.6,3.96-2.2,2.36-5.04,3.16-6,6.64-.28-.28-.52-.32-.92-.44-.56-.16-.68-.32-1.12-.68l.04-.08c.48-1.32,1.28-2.76,1.28-4.16,0-.52-.16-.96-.16-1.48,0-1.84,1.56-3,1.56-4.4,0-.6-.32-1.16-.68-1.6-1.56-.08-2.64,1.16-4.36,1.08-1.08,1.12-2.24,2.16-3.4,3.2-2.36,2.12-4.84,4.32-6.2,7.24-.28.6-.44,1.16-.68,1.76,0,.04-.04.12-.08.16h-.16c-1.16,0-.48,1.44-1.28,1.68-.4.12-.84-.24-1.12-.56-1.04-1.68,0-3.56.84-5.04.64-1.08,1.32-2.24,1.32-3.56,0-.52-.16-.96-.28-1.44l.84-.56c-.44-.72,0-1.2-.24-1.64v-.12l.32-.36c-.12-1.72.08-3.12-.52-4.8.68-.68,1.4-.12,2.04.32l.04.08c.84,1.2,1.24,3.72,1.24,5.16,0,.2-.04.4-.04.6l-.24.24c.24.24.56.6.92.56.64-1.92,3.12-.64,3.12-2.52,0-.08,0-.16-.04-.24l.08-.08c2.96-2.96,6.12-4.88,10.32-2.76l.08.04.44,1.6-.28.28c1.04,1.44-1.04,4.08-.44,4.88.28.32,1.2.2,1.56.16.88-1.16,3.36-1.56,3.48-2.56,2.56.56,1.6-3.2,4.24-2.8,1.2-1.2,2.96-1.72,4.6-1.76,1.16-.04,1.6.84,1.6,1.88,0,2.72-3.04,4.8-3.04,8.24,0,.36,0,1.68.32,1.88l.24.12-.16.16c1.16.16,2,.64,3.12.2.32-.12.64-.16.96-.24.92-.16,0-1.48,3.04-1.48v-.64c2.08-.68,2.64-2.24,5.2-1.76-.48.4-1.48,1.16-1.76,1.68Z"/>
      <path class="cls-1" d="m256.88,40.56l-1.16.24c-1.96.4-3.68,1.28-5.52,2-.2-.24-.6-.44-.84-.12.04.12.04.24.04.36,0,1.28-.16,1.4-1,2.24-.24.24-.24.4.12.4-.16.2-.36.36-.6.4-.08.04-.36.08-.36.08-.04.12.2.52.24.64s-.8.92-.56,1.2v.28c.24.12-.16.2-.2.2s-.44.36-.44.4c-.12.08-.24.12-.36.2-.08.04-.36.76-.28.92,0,.68-.16,1.08-.32,1.72-.4,1.64-1.72,1.08-2.12,2.76,0,0-.12.48-.12.52-.4.72-.56.84-.56,1.6.16.36-.44,1.32-.64,1.64-.16.28-.4.52-.6.8-.48.72-.96,1.44-1.36,2.24-.56,1.08-1.24,2.16-2,3.12-.28.36-.76.8-.96,1.2v.28c0,1.04-.68,1.44-1.48,1.92-.28.16-.64.4-.84.68-.28.44-.92,1.24-1.4,1.44-.08,0-.92-.08-1-.08-.16.12-1.12.72-1.28.64-.12-.08-.2-.12-.36-.12-.12,0-.28.2-.36.28-.16-.04-.32-.08-.48-.08-.24,0-.96-1-1.08-1.2-.72-1.12-.16-3.36.12-4.6.24-1.04.48-2.12.48-3.2,0-.24.12-.36.24-.52.08-.12,0-.24-.04-.36-.12-.28.8-2.2,1-2.52,1-1.88,1.72-4.08,3.08-5.76.76-.96,1.6-1.88,2.32-2.88.12-.16.24-.36.36-.48.32-.44,1.04-.76,1.6-.64.04,0,.72-.44.76-.48.2-.68.72-1.56,1.2-2.08.68-.76,2.16-.4,3.12-1.52.32-.4,1.08-1.16,1.6-1.32.52.08,1.68-.2,2-.68.16-.24.2-.56.2-.88,0-.4.48-1.2.68-1.52.24-.4.4-.8.52-1.24.08-.24.16-.48.2-.72.08-.16.8-1.36.72-1.48-.04-.08-1.36-.16-1.48-.16-.4-.04-1.84.72-1.92.96-1.64.6-3.36.36-5,.96-1,.36-2.24.56-3.32.52-.08,0-1.2-.44-1.32-.48-.52-.2-.96-1.24-1.16-1.68-.24-.52-.44-1.12-.52-1.72-.04-.04-.08-.56-.08-.56-.2-1.4-.48-3.32.28-4.56.2-.36.48-.88.76-1.2.2-.2.36-.4.56-.6.04-.08.24-.28.28-.32.52-.56,1-1.2,1.44-1.84.2-.28.88-1.12,1.28-.96.24,0,.48,0,.72.04.56.8.4,1.04.4,2-.28.2-.56.44-.88.64-.24.16-1.04,2.72-1.12,3.08-.32,1.32-1.12,2.8-2.04,3.8l-.04.12c.32.32.6.68.92,1,.32,0,.64-.04.92-.12.24.2.56.44.76.68,1.32,0,2.12.12,3.28-.6.2-.12.76-.48,1-.52l1.4-.2c.44-.2.92-.52,1.32-.8.24-.16.6-.28.88-.4,1.6-.72,2.68-2.08,3.92-3.24.96-.92,2-2.24,2.52-3.44.36-.84.84-1.84,1.44-2.56.4-.48,1.32-.8,1.92-.92.4-.08.84.44.88.8.08,2-.4,2.4-1.6,3.96l-.92,1.2c-.04.12.08.16.12.24.12.16-.28,1.16-.36,1.32-.04,0-.36.52-.36.52-.68.96-1.16,1.88-1.12,3.08.04.96-1.12,1.16-1.36,2.92,0,0-.04.52-.08.56-.24,1-.56,1.68-.96,2.68.08,0,1.24-1.24,2.04-.96.64.24,1.8-.28,1.88-.24.44,0,.84,0,1.28.04.08.08,1.4.04,1.8.28.6.36-.36.72-.64.76Zm-13.52,6.32l-.32.16c-1,.52-.36,2.08-1.52,2.6-1.32-.6-.88-.76-2.08.6-1.48,1.64-3,3.28-4.48,4.96-.36,1.08-1,2.2-1.52,3.2-1.24,2.24-1.88,5.8-2.16,8.4.16.2,1.36-.16,1.6-.24.08,0,.92-1,.96-1.08.2-.08.88-.4,1.08-.4.08,0,.12-.6.12-.68v-.68c-.08-.12-.04-.72-.04-.84.56-.28,1.16-.52,1.68-.84.16-.48.4-.96.64-1.44,1-1.96,1.92-3.96,3.08-5.88.88-1.48,1.64-3,2.52-4.48.12-.24.88-1.36,1.16-1.36.24,0,.28-.56.28-.72,0-.44,1.36-2.96,1.36-3.08-.32.36-1.88,2.04-2.36,1.8Z"/>
      <path class="cls-1" d="m290.96,43.2c-2.04-.52-4.04,1.04-5.4-1.04h-.6c.08-.68,0-1.6-.84-1.72,1.08-1.12.24-2.96,1.44-3.96-1.28-1.68,1.08-3.36,1.12-5.12-.44-.32-.76-1.16-1.44-.88-2.8,2.68-5.68,4.76-7.64,8.24-1.76.36-1.56,3.04-3.16,3.44-.28.84-.56,1.72-.84,2.56-.6-.32-2.08-.4-2.28-1.16-.04-.08,0-.56,0-.64.24-2.96,3-4.88,3.12-7.88,1.52-.04.52-2.2,2-2-.96-1.28.52-3.12,1.16-4.24-.04-.72.16-1.52.6-2.08.48-.52.84-1.08,1.16-1.64.2-.28.32-.6.48-.84.92-1.32.28-3.24,2-3.96,0-1.12.88-2,.88-3.12.36-.56,1.36-.92,1.12-1.72.04-.64-.2-1.48.28-2-.16-1.32,1.24-1.56,2-2.28-.48-.8.76-1.84,1.12-2.52.64-1.2.84-2.56,2.28-3.16-.44-2.12,1.72-2,2.56-3.4,1.16-.28,2.8-.92,3.8,0,.52.44,0,.08.44.56.2.2.4.4.6.6.16.76-.44,1.88.56,2.24-.88,3,.72,7.16-1.44,9.68l-.28,2c-1.36.12-.72,1.76-1.4,2.56-.8,1.04-1.56,2.88-3.12,2.84-.24.64-1.36,1.76-2,1.96-.4.16-.72.16-1.12.4-.92.56-1.96,1.8-3.16,1.32-1.36,1.64-3.56.2-4.32,2.16-.08.12-.2.56-.2.68,0,.6-.2,1.56.28,2,1.88-.88,3.48-2.32,5.4-3.12l.28.28c.16-1.16,1.16-.88,2-.84h.28c.12,0,.16-.04.28-.04,1,0,1.12.96,1.4,1.72-1.16,1.28-1.12,3.56-2.28,5.12.92.52-.68,1.32.6,1.68-1.04.72-.48,2.12-1.44,2.84.2.48.4.92.28,1.44,1.48,1.84,2.92-.12,4.56.48,2.92-1.96,1.56-.16,4.16-2.68,1.32-.36,2.16-1.44,3.4-1.96-2.24,4.68-3.48,4.8-8.68,7.2Zm2.84-39.11c.12,1.28-1.6,1.12-1.72,2.28-1.32.6-.48,2.16-2,2.84l.28.28c-1.72,1.56-2.6,3.84-3.4,5.96-1.4,1.52-.88,4.16-2.84,5.12,1.08,1.36-1,2.16-1.12,3.4,1.96.4,3.88-1.28,5.4-2.28l.28.28c2.32-1.28,3.72-3.24,5.12-5.4-.2-.12-.36-.32-.32-.56.08-.28.32-.68.4-.96.28-.72.44-1.44.6-2.16.64-2.8.92-5.68,1-8.52l-1.68-.28Z"/>
      <path class="cls-1" d="m325.32,30.57c-.4.44-.76.92-1.2,1.28-1.24-.28-1.32,1.52-2.04,1.4-1.24.68-2.56,1.04-3.68,1.96l-.32-.32-4.04,1.96c-.28.12-.52.36-.8.52-1.12.64-2.36,1.12-3.6,1.52l-.48.16c.84,2.04-2.2,1.4-3.28,2-.64-.08-1.32-.04-1.96.04-.72.08-1.32.12-2.04-.04h-.08c-1.8.76-2.48-1.16-3.44-2.48-.64-.84-2.16-3.32-1.2-4.68.48-.68.76-1.44.76-2.44,0-.36-.04-.68-.04-1.04.52,0,1.4.28,1.4-.6,0-.28-.28-.4-.32-.56.56-.96,1.28-1,1-2.32,1.24-2.16,3.56-3.28,5.32-4.96,2.04.8,2.12-2.2,3.64-1.08l.08.08c2.76-2.8,6.28,1.4,4.52,2.16.32.28.44.56.44,1,0,.36-.12.72-.32,1-.48.64-.8,1.28-1.12,2-.52,1.16-1.08,2.36-2.2,3.04-1.92-.48-.88,2.48-2.28,1.4l-.08-.08-.08.08c-.4.4-.52,1.08-.96,1.32-.48-.16-1-.24-1.48-.36,0,3.28-4.16,1.92-5.44,4.6,1.08,1.16,3.28-.12,4.48.76h.08c2.52-.32,4.6-1.96,7.08-2.36.24.4.76.4,1.16.32l.04-.08c.12-.36.2-.64.4-.96.8-1.2,2.12-1.12,3.48-1.32h.08l.04-.12c.4-1.24,1.36-.72,2.24-1.24.92.32,1.48-.4,2.04-.96l.32.36.12-.12c1.52-1.52,1.32-1.24,3.12-2.4.72-.48,1.44-.92,2.12-1.48.24.12.2.44.2.68-.04.12-.08.36,0,.48-.96,1-.76.88-1.68,1.88Zm-14.6-6.84c-3.24-1.8-3.12,2.88-6.28,2-.12.8-.28,1.64-.32,2.44-1.8.68-1.76,2.4-2.72,3.76l.16.2c.2-.12.52.28.64.4,1.12-1.72,4.16-1.96,5.16-3.8,1.68-.48,2.36-2.12,2.92-3.6.12-.32.52-1.08.56-1.32-.04-.04-.08-.04-.12-.08Z"/>
      <path class="cls-1" d="m345.76,40.36s-1.6,1.32-2.04,1.32c-.12,0-.2-.04-.32-.04-.32,0-.64.12-.84-.24-.32.28-.24.96-.92.76l-.2-.24-.6.52c-2.92-1.48-5.36-1.56-5.96-5.32-.28-.32-.56-.64-.96-.52-.52.88-1.32,1.44-2.04,2.16-.24.28-.4.6-.64.88-.8.96-2.44.28-2.92,2.04-.36-.2-.64-.2-.92-.16-1,.16-2.08.76-2.88-.28-1.4.6-2.48-1.76-3.44-2.44-.56-1.68,1.88-2.24.64-3.76,1-1.52,1.56-3.6,2.96-4.8-.6-.68.24-1.4.4-2.04l1.12-.52-.28-.96c1.2.2,1-.76,1.32-1.44.12-.2.28-.4.56-.48,2.24-1.68,4.12-3.88,6.76-5,1.92.32,1.96,1.72,2.32,3.16.24.84.52,1.48,1.4,1.88-.72,1.28-.36,2.48-.2,3.8.16,1.28.16,2.52-1.16,3.44-.16.72.32,1.8-.56,2.24.96,1.08-.36,2.4,1.44,2.84.28,1.32.44,1.16,1.44,1.88.44.08,1.04-.16,1.36.24.24-.24.64-.24.96-.2l.52.84c1.12-.88,3.2-1.2,3.2-1.2l3.64-2.2c-1.48,2.56-1.36,2.68-3.16,3.84Zm-11.84-17.2c-1,.88-2.96,1.6-3.16,3.04-2.36.4-1.4,3.48-3.32,4.48-.08.08-.28.16-.4.16-.04,0-.04.04-.24.16-1.16.8-1.52,2.68-2,3.92-1.48.24-1.28.8-.88,1.52.36.64,1.08,1.64.56,2.36.72.6,1.4,0,2-.4.2-.16.44-.32.72-.44,2.4.44,3.76-2,5.36-3.24l-.28-.32c1.84-.56,1.36-1.84,1.24-3.24-.04-.4-.04-.84.12-1.24-.8-2.4,1.56-4.2,1.56-6.48l-1.28-.28Z"/>
      <path class="cls-1" d="m372.28,37.52c-.52,1.88-3.52.96-3.56,3.24-2.04,1.16-5.16,1.96-7.4,1.04-.44-.16-.76-.4-1.16-.68-.24-.2-.48-.32-.72-.56-1.24-1.24-1.6-3.48-1.8-5.16l1.44-3.92c-1.52-1.16-2.2-2.96-3.56-4.28-.28.36-.8.56-.72,1.08l.36.36c-1.72,1.88-3.64,4.4-4.64,6.76-2.24-.16-1.32,3-3.56,2.84-.44,1.16-.96,2.84-2.48,2.88-.88-.84.08-1.96.32-2.88.84-3.04,5-4.6,4.64-8.2,1.32-.16,3.08-.84,2.88-2.48-.4-.2-.4-.68-.36-1.08,2.28-.76,2.56-3.84,4.28-5.36.72.36,1.48.6,2.12,1.08-.92,1.2-.12,2.36-.72,3.56.84.72,1.24,1.84,2.16,2.52,1.24-.92,3.32.36,4.28-1.08.48.4,1.84-.16,1.92.64.04.36-.08.44-.16.8-.08.44.04.2-.12.6-.52,1.36-2.68,1.6-2.72,3.32-2.32.76-1.44,3.56-2.12,5.32l.36.36.32-.36c.68,1.04,1.76,1.16,2.88,1.08,1-1.52,2.96-1.72,4.52-2.44.64-.28,1-.64,1.52-1.12,1.56-1.44,3.08-2.84,4.64-4.28.64,0,.32,1.4.36,1.8-2.4,1.08-1.04,3.56-3.2,4.6Z"/>
      <path class="cls-1" d="m396.48,13.45c-1.64-.44-3.64.8-5.48.68l-.64-.68c-.36.6-1.12.76-1.72.32-2.16,1.48-4.56-1.04-5.88,2.4-.44,1.2-.84,2.44-1.28,3.64-1.12,3.08-2.28,6.16-3.72,9.12-.12,2.36.2,4.76.44,7.12-.4,1.24.44,2.8,1.2,3.76l.72-.68.96,1.36c1.04-1.4,2.8-3.12,4.56-3.4.8-.72,1.16-1.76,2.44-1.36,3.36-1.92,4.88-6.16,8.76-7.16-1.28,3-3.24,6-5.64,8.2-.32.36-.76.72-1.16,1-.4.28-.88.52-1.32.8-1.4.92-2.76,2-3.92,3.28-.28-.64-1.16-.28-1.72-.36-1,.72-2.8,1.32-4.08,1.04-.32-.08-1.12-.48-1.44-.68-2.04-1.32-3-3.44-3.12-5.8l-.32-.32c1.4-1.2.44-2.52.36-4,0-.44.08-.72.16-1.12.4-1.64.72-3.24,1.16-4.84,1.08-3.96,2.48-7.84,4-11.64-1.64-.64-3.4-.08-5.08-.68-.36-.12-.2-.16-.6-.16-.52,0-2.04.44-2.2-.28v-.4c.08-1.72,1.4-.8,2.44-1.44,2.88.56,5.2.64,7.52-1.36,1.64-3.28,1.16-7.76,4.76-9.8.8-.08,1.4.32,2.04.68-.56,1.44-.48,3.2-1.52,4.44,1.44.48,0,1.56-.12,2.36-.56.04-.92.96-1.36,1.32-.4.88.44,1.44.92,2.04.96.36,1.8-.88,2.4,0,1.04-1.16,2.16.88,3.08-.68,1.32-.56,2.12,1,3.04.32,1.6.24,3.88-.36,5.48-.68,1.56.96.24,1.28.68,2.6-1.44,1.6-3.68-.64-4.8,1.04Z"/>
      <path class="cls-1" d="m396.08,39.56l.36.36c-1.32,2.48-3.08,4.8-4.08,7.48-2.24.28-3.48,3.04-5.48,4.08-.72-.36-.92-1.48-.32-2.04.4,0,.84,0,1-.36-.64-.84.72-1.96,1.04-2.72,1.32-.36,1.84-2.24,2.04-3.4,1.16-1.48,3.2-3.36,2.4-5.44.68-.92,2.56-1.68,3.4-.56.2.32.24.56.32.92.24.92-.36.96-.68,1.68Z"/>
      <path class="cls-1" d="m444.44,12.01c1.16,1.76-.56,3.44-.92,5.16-1.96.84.08,3.04-2.28,3.84l-.24.08c1.76,1.72-.72,2.52-1.8,3.6.12.12.28.24.4.32-1.08,1.08-2.8,1.84-2.92,3.6-.44.52-1.44.24-1.76.96,0,.2.04.44.08.64-2,.16-2.72,1.8-4.16,2.92-.12-.12-.2-.16-.32-.24-.28-.04-.96.44-1.12.64-.48,1.16-2.12,2.12-.68,3.56-.72,1.48,1.12,3.4.12,4.24.04.4.04.76.48.96h.4c-.2,1.8.2,5.8-.64,7.2.36.4.92.64.96,1.28.04,1.16-1.52,2.28-.76,3.28-.92.52-1.16,1.28-1.16,2.28,0,.64.16,2.04-.12,2.6-.32.64-.64,1.24-.96,1.88-.6,1.28-1.12,2.64-1.6,4-.12.32-.28.64-.36,1-1.6-.32-.84,1.28-2.48,1.28v.12c-.4,2.36-4.72,3.76-6.44,5.44-1.88-.2-3.16,2.92-5.48.96-.52.08-.32-.04-.72.32-.84-.52-1.56-1.28-1.8-2.28.12-.08.24-.2.36-.32-1.48-.84-.84-3.32-1.32-4.56.76-.12,1.2-.84,1.72-1.32-.08-.12-.2-.64-.2-.76-.08-2.04,1.48-3.6,2.08-5.44,1.08-.88,1.56-1.8,2.12-3.04.32-.76,1.24-2.52,2.04-2.8-.04-.08-.04-.2-.04-.32,0-1.76,2.96-2.12,1.72-4.28,2.96-2.6,3.04-6.52,5.56-9.04l.08-.08c-.56-3.04-2.24-.24-4.88-3.24-1.44-.88-1-1.52-1.8-2.64,1.84-1.16-.92-2.88-.36-3.56.2-.44.92-.52,1.32-.68-.24-1,.88-1.64,1.64-1.96.92.24,1.16-.56,1.44-.64l-.04-.32c.88-.24,1.52.28,2.16.8.72.6,1.16.96,2.16.8.24.24.52.44.8.64.24-.16.36-.44.72-.28l-.32.32,1.64,1.28.96-1.32-.16-.04-.28-.28c0-.4.4-.6.4-1-.04-.08-.04-.16-.12-.2l.04-.08c2.2.2.24-1.92,2.2-2.64-1.64-1.6,1.2-1.12,1.2-2.48,0-.24-.08-.44-.08-.68,0-2.32,2.96-3.48,2.68-5.92,0-.12-.04-.24-.08-.36.96-2.24,2.8-4.08,3.32-6.52.2-.04.64-.04.72-.36-.04-.2-.04-.44-.04-.64.36.04.48-.08.72-.36.08-.12.28-.2.32-.36.12-1.68,1.04-2.4,2.16-3.52,2.48-.72,4,.8,4.88,2.96-.04,1.92-.32,3.84-1.16,5.6Zm-17.68,37.95c-.08-.32-.12-.8.24-.96-.84-.8-.24-1.16-.6-1.96.48-1.96-.32-3.92-.32-5.88-1.68-.6-.24,1-1.72,1v.16c.52.96-1.8,2.08-1.8,3.4-1.64,1-.68,3.28-2.48,3.88-.04.04-.08.08-.08.12-.56,1.64-.92,2.16-1.92,3.52-1,1.32-1.8,2.52-1.96,4.24-2.56.44-1.52,3.44-2.8,4.88-1.48,2.24-3.24,4.36-3.24,7.2.64.68,1.52.96,2.4,1.28,2.04-.36,2.84-1.6,4.48-2.6,2.16.08,3.16-1.24,4.16-2.92.48-.84,1.32-2.12,2.2-2.56.04,0,.08-.04.12-.04-.16-.2-.36-.8-.36-1.04-.12-2.48,3.56-3.28,1.76-5.84,1.92-1.4.48-3.72,2.2-5.44l.12-.12-.4-.32Zm-3.68-19.44c-.68.36-2.4.08-3.08-.28-1.36.88-1.64,2.04-1.44,3.6,0,.12.16.96.16.96,1.6,1.64,2.6-.44,4-1,.72.44,1.36.32,1.8-.36-1-1.04-.04-2.36-1.44-2.92Zm18.72-23.6l-.08.08c-1.4,1.76-2.8,4.64-3.8,6.68-.24.48-2.12,4.2-2.28,4.36-.32,1.92-1.4,4.52-2.92,5.76-.04.04-.08.04-.12.08l.08.08c1.64,2.32-1.68,2.44-1.52,4.6.04.32.08.56.24.84h.72c1.48-1.4,1.44-3.88,4.04-3.88l-.08-.68c1.68-1.64,2.8-3.88,2.96-6.2,1.72-.6.64-2.36,2.12-3.52l.08-.08c0-.24-.08-.48-.08-.72,0-1.8,1.36-3,2.08-4.52-.48-.32-.32-2.72-1.44-2.88Z"/>
      <path class="cls-1" d="m465.56,31.25c-2.32.48-3.96.6-6.32,1-.64.12-1.24-.12-1.88-.08-.32,0-.64-.04-.96,0-2.36.16-.92,3.36-3.12,3.96-.08.24.16.44.28.6-1.8.56-.6,3.12-2.84,2.84-1.6,1.72-3.88,2.8-6.24,3.12-.84-.44-1.44-1.36-2.56-1.16-.04-1.08-.48-2-1.12-2.84-.2-1.92,1.68-3.04,1.12-5.08,1.08-.56.28-1.84,1.44-2.28-.88-2.48,2.88-1.96,2.56-4.28.68-.6,1.64-.68,2.24-1.4-.72-.52.28-1.04,0-1.72,2.84.44,3.96-3.16,6.56-1.4.24.72,1.04,3.04,1.12,3.68.08.48,0,2.52,0,3.12,1.52.84,3.04,1.12,4.56.28,1.12,1.04,2.04-1.6,3.12.2,1.44-1.44,3.2-.28,4.76-1.44.4,1.56-1.76,2.04-2.72,2.88Zm-17.68-1.64c-.92,1.24-2.8,2.08-1.96,4-2.4,1.16-1.12,4.56-2.28,6.52l.84-.56c.2.12.4.32.28.56.84-.84,2.08-.76,3.12-1.16,2.64,1.48,1.8-2.44,3.72-2.84l-.28-.28c.88-1.08,1.72-2.24,1.68-3.68-2.04.04-2.84-2.4-5.12-2.56Zm5.12-5.4c-1.12.6-1.24,2.56-2.84,2.28-.52,1.24,1.36,1.44,1.16,2.56.4.36,1.64.52,1.96,0,0-1.6,1.44-3.6-.28-4.84Z"/>
      <path class="cls-1" d="m488.12,37.52c-.52,1.88-3.52.96-3.56,3.24-2.04,1.16-5.16,1.96-7.4,1.04-.44-.16-.76-.4-1.16-.68-.24-.2-.48-.32-.72-.56-1.24-1.24-1.6-3.48-1.8-5.16l1.44-3.92c-1.52-1.16-2.2-2.96-3.56-4.28-.28.36-.8.56-.72,1.08l.36.36c-1.72,1.88-3.64,4.4-4.64,6.76-2.24-.16-1.32,3-3.56,2.84-.44,1.16-.96,2.84-2.48,2.88-.88-.84.08-1.96.32-2.88.84-3.04,5-4.6,4.64-8.2,1.32-.16,3.08-.84,2.88-2.48-.4-.2-.4-.68-.36-1.08,2.28-.76,2.56-3.84,4.28-5.36.72.36,1.48.6,2.12,1.08-.92,1.2-.12,2.36-.72,3.56.84.72,1.24,1.84,2.16,2.52,1.24-.92,3.32.36,4.28-1.08.48.4,1.84-.16,1.92.64.04.36-.08.44-.16.8-.08.44.04.2-.12.6-.52,1.36-2.68,1.6-2.72,3.32-2.32.76-1.44,3.56-2.12,5.32l.36.36.32-.36c.68,1.04,1.76,1.16,2.88,1.08,1-1.52,2.96-1.72,4.52-2.44.64-.28,1-.64,1.52-1.12,1.56-1.44,3.08-2.84,4.64-4.28.64,0,.32,1.4.36,1.8-2.4,1.08-1.04,3.56-3.2,4.6Z"/>
      <path class="cls-1" d="m525.2,40.56l-1.16.24c-1.96.4-3.68,1.28-5.52,2-.2-.24-.6-.44-.84-.12.04.12.04.24.04.36,0,1.28-.16,1.4-1,2.24-.24.24-.24.4.12.4-.16.2-.36.36-.6.4-.08.04-.36.08-.36.08-.04.12.2.52.24.64s-.8.92-.56,1.2v.28c.24.12-.16.2-.2.2s-.44.36-.44.4c-.12.08-.24.12-.36.2-.08.04-.36.76-.28.92,0,.68-.16,1.08-.32,1.72-.4,1.64-1.72,1.08-2.12,2.76,0,0-.12.48-.12.52-.4.72-.56.84-.56,1.6.16.36-.44,1.32-.64,1.64-.16.28-.4.52-.6.8-.48.72-.96,1.44-1.36,2.24-.56,1.08-1.24,2.16-2,3.12-.28.36-.76.8-.96,1.2v.28c0,1.04-.68,1.44-1.48,1.92-.28.16-.64.4-.84.68-.28.44-.92,1.24-1.4,1.44-.08,0-.92-.08-1-.08-.16.12-1.12.72-1.28.64-.12-.08-.2-.12-.36-.12-.12,0-.28.2-.36.28-.16-.04-.32-.08-.48-.08-.24,0-.96-1-1.08-1.2-.72-1.12-.16-3.36.12-4.6.24-1.04.48-2.12.48-3.2,0-.24.12-.36.24-.52.08-.12,0-.24-.04-.36-.12-.28.8-2.2,1-2.52,1-1.88,1.72-4.08,3.08-5.76.76-.96,1.6-1.88,2.32-2.88.12-.16.24-.36.36-.48.32-.44,1.04-.76,1.6-.64.04,0,.72-.44.76-.48.2-.68.72-1.56,1.2-2.08.68-.76,2.16-.4,3.12-1.52.32-.4,1.08-1.16,1.6-1.32.52.08,1.68-.2,2-.68.16-.24.2-.56.2-.88,0-.4.48-1.2.68-1.52.24-.4.4-.8.52-1.24.08-.24.16-.48.2-.72.08-.16.8-1.36.72-1.48-.04-.08-1.36-.16-1.48-.16-.4-.04-1.84.72-1.92.96-1.64.6-3.36.36-5,.96-1,.36-2.24.56-3.32.52-.08,0-1.2-.44-1.32-.48-.52-.2-.96-1.24-1.16-1.68-.24-.52-.44-1.12-.52-1.72-.04-.04-.08-.56-.08-.56-.2-1.4-.48-3.32.28-4.56.2-.36.48-.88.76-1.2.2-.2.36-.4.56-.6.04-.08.24-.28.28-.32.52-.56,1-1.2,1.44-1.84.2-.28.88-1.12,1.28-.96.24,0,.48,0,.72.04.56.8.4,1.04.4,2-.28.2-.56.44-.88.64-.24.16-1.04,2.72-1.12,3.08-.32,1.32-1.12,2.8-2.04,3.8l-.04.12c.32.32.6.68.92,1,.32,0,.64-.04.92-.12.24.2.56.44.76.68,1.32,0,2.12.12,3.28-.6.2-.12.76-.48,1-.52l1.4-.2c.44-.2.92-.52,1.32-.8.24-.16.6-.28.88-.4,1.6-.72,2.68-2.08,3.92-3.24.96-.92,2-2.24,2.52-3.44.36-.84.84-1.84,1.44-2.56.4-.48,1.32-.8,1.92-.92.4-.08.84.44.88.8.08,2-.4,2.4-1.6,3.96l-.92,1.2c-.04.12.08.16.12.24.12.16-.28,1.16-.36,1.32-.04,0-.36.52-.36.52-.68.96-1.16,1.88-1.12,3.08.04.96-1.12,1.16-1.36,2.92,0,0-.04.52-.08.56-.24,1-.56,1.68-.96,2.68.08,0,1.24-1.24,2.04-.96.64.24,1.8-.28,1.88-.24.44,0,.84,0,1.28.04.08.08,1.4.04,1.8.28.6.36-.36.72-.64.76Zm-13.52,6.32l-.32.16c-1,.52-.36,2.08-1.52,2.6-1.32-.6-.88-.76-2.08.6-1.48,1.64-3,3.28-4.48,4.96-.36,1.08-1,2.2-1.52,3.2-1.24,2.24-1.88,5.8-2.16,8.4.16.2,1.36-.16,1.6-.24.08,0,.92-1,.96-1.08.2-.08.88-.4,1.08-.4.08,0,.12-.6.12-.68v-.68c-.08-.12-.04-.72-.04-.84.56-.28,1.16-.52,1.68-.84.16-.48.4-.96.64-1.44,1-1.96,1.92-3.96,3.08-5.88.88-1.48,1.64-3,2.52-4.48.12-.24.88-1.36,1.16-1.36.24,0,.28-.56.28-.72,0-.44,1.36-2.96,1.36-3.08-.32.36-1.88,2.04-2.36,1.8Z"/>
      <path class="cls-1" d="m552.8,31.25c-2.32.48-3.96.6-6.32,1-.64.12-1.24-.12-1.88-.08-.32,0-.64-.04-.96,0-2.36.16-.92,3.36-3.12,3.96-.08.24.16.44.28.6-1.8.56-.6,3.12-2.84,2.84-1.6,1.72-3.88,2.8-6.24,3.12-.84-.44-1.44-1.36-2.56-1.16-.04-1.08-.48-2-1.12-2.84-.2-1.92,1.68-3.04,1.12-5.08,1.08-.56.28-1.84,1.44-2.28-.88-2.48,2.88-1.96,2.56-4.28.68-.6,1.64-.68,2.24-1.4-.72-.52.28-1.04,0-1.72,2.84.44,3.96-3.16,6.56-1.4.24.72,1.04,3.04,1.12,3.68.08.48,0,2.52,0,3.12,1.52.84,3.04,1.12,4.56.28,1.12,1.04,2.04-1.6,3.12.2,1.44-1.44,3.2-.28,4.76-1.44.4,1.56-1.76,2.04-2.72,2.88Zm-17.68-1.64c-.92,1.24-2.8,2.08-1.96,4-2.4,1.16-1.12,4.56-2.28,6.52l.84-.56c.2.12.4.32.28.56.84-.84,2.08-.76,3.12-1.16,2.64,1.48,1.8-2.44,3.72-2.84l-.28-.28c.88-1.08,1.72-2.24,1.68-3.68-2.04.04-2.84-2.4-5.12-2.56Zm5.12-5.4c-1.12.6-1.24,2.56-2.84,2.28-.52,1.24,1.36,1.44,1.16,2.56.4.36,1.64.52,1.96,0,0-1.6,1.44-3.6-.28-4.84Z"/>
      <path class="cls-1" d="m577.76,38.68c-1.24.04-1.12-.04-2.2.6-.4,1.16-1.52.88-2.36,1.72-1.96.32-3.72-.12-5.24-1.32-.36-.24-.64-.6-.96-.88-.28-.2-.2-.04-.4-.32-.76-1,.08-3.4-2.12-3.28-1,2.2-4.08,4.68-6.52,4.68-.44,1.2-1.56,1.72-2.68,2.04-.08.04-.56.16-.6.16-1.4.08-1.44-1.48-2.88-1.44-.56-1.32-1.24-2.6-1.48-4,.44-.2.36-.68.36-1.08-1.64-.52.36-1.68-.36-2.2.36-3.16,1.8-6.32,4.36-8.32-.64-1.96,2.52-2.04,2.56-.36,0,.32-.16.72-.2,1.04-.72,3.16-2.72,5.72-3.8,8.72-1.28.84,1.68,1.84-.36,2.56-.32.76.4,1.2.72,1.8.36.04.84.04,1.08-.36,1.2.88,1.96-1.6,3.64-.72.72-.76.72-2.36,2.16-2.16,1.48-2.6,5.24-3,5.8-5.8,1-1.6,1.92-3.8,3.28-5.08.36-.84,1.56-1.04,2.16-.36.2,1.88-1.8,2.92-1.08,5.08-1.44.84-2.96.96-3.28,2.88,2.84,1,.2,3.24,2.56,5.08.2.16.24.24.48.32,1.04.32,1.52-1.12,2.68.12.36-.48.76-.52,1.08,0,1.28-2.32,1.96.2,3.24-2.12l.36.36c.64-1.64,1.96.8,2-1.4.92,0,1.24-1.04,2.44-1l-1.04,2.48-3.4,2.56Z"/>
      <path class="cls-1" d="m579.84,42.16c-1.24-.08-1.6-1.36-1.64-2.4v-.84c.32-1.44,3.16-4.28,3.28-.52.32-.28.6-.76,1.08-.56-.08,1.56-.6,4.48-2.72,4.32Z"/>
    </g>
  </g>
</svg>